<svg width="445" height="181" viewBox="0 0 445 181" fill="none" xmlns="http://www.w3.org/2000/svg">
<path fill-rule="evenodd" clip-rule="evenodd" d="M0 13.765L59.235 73L0 132.235V13.765ZM13.765 0L73 59.235L132.235 0L13.765 0ZM146 13.765L86.765 73L146 132.235V13.765ZM132.235 146L73 86.765L13.765 146L38.5875 146L73 180.413L107.413 146L132.235 146Z" fill="white"/>
<path d="M174.304 47.0727V32.7304H249.275V47.0727H219.287V124H204.292V47.0727H174.304ZM269.71 112.787C260.409 103.573 255.759 92.0991 255.759 78.3652C255.759 64.6313 260.409 53.1574 269.71 43.9435C279.011 34.7296 290.659 30.1227 304.653 30.1227C318.648 30.1227 330.296 34.7296 339.597 43.9435C348.897 53.1574 353.548 64.6313 353.548 78.3652C353.548 92.0991 348.897 103.573 339.597 112.787C330.296 122.001 318.648 126.608 304.653 126.608C290.659 126.608 279.011 122.001 269.71 112.787ZM280.663 53.8528C274.491 60.1113 271.405 68.2821 271.405 78.3652C271.405 88.4483 274.491 96.6191 280.663 102.878C286.834 109.136 294.831 112.265 304.653 112.265C314.389 112.265 322.342 109.136 328.514 102.878C334.772 96.6191 337.902 88.4483 337.902 78.3652C337.902 68.2821 334.772 60.1113 328.514 53.8528C322.342 47.5943 314.389 44.465 304.653 44.465C294.831 44.465 286.834 47.5943 280.663 53.8528ZM358.183 124L381.652 32.7304H418.812L442.933 124H427.287L421.028 100.531H379.044L373.177 124H358.183ZM382.956 86.1883H417.377L407.077 47.0727H392.735L382.956 86.1883Z" fill="white"/>
</svg>
