<svg width="526" height="181" viewBox="0 0 526 181" fill="none" xmlns="http://www.w3.org/2000/svg">
<path fill-rule="evenodd" clip-rule="evenodd" d="M0 13.765L59.235 73L0 132.235V13.765ZM13.765 0L73 59.235L132.235 0L13.765 0ZM146 13.765L86.765 73L146 132.235V13.765ZM132.235 146L73 86.765L13.765 146L38.5875 146L73 180.413L107.413 146L132.235 146Z" fill="white"/>
<path d="M182.127 124V32.7304H249.275V47.0727H197.121V66.6305H221.894C232.412 66.6305 240.67 69.3251 246.668 74.7144C252.752 80.1037 255.795 86.9706 255.795 95.3153C255.795 103.66 252.752 110.527 246.668 115.916C240.67 121.305 232.412 124 221.894 124H182.127ZM197.121 109.658H221.894C227.979 109.658 232.543 108.397 235.585 105.876C238.627 103.269 240.148 99.7484 240.148 95.3153C240.148 90.8822 238.627 87.4052 235.585 84.8844C232.543 82.2767 227.979 80.9729 221.894 80.9729H197.121V109.658ZM263.577 124L286.394 32.7304H323.554L347.023 124H331.377L311.819 47.0727H297.477L278.571 124H263.577ZM365.589 112.787C356.288 103.573 351.638 92.0991 351.638 78.3652C351.638 64.6313 356.288 53.1574 365.589 43.9435C374.89 34.7296 386.538 30.1227 400.532 30.1227C414.527 30.1227 426.175 34.7296 435.476 43.9435C444.776 53.1574 449.427 64.6313 449.427 78.3652C449.427 92.0991 444.776 103.573 435.476 112.787C426.175 122.001 414.527 126.608 400.532 126.608C386.538 126.608 374.89 122.001 365.589 112.787ZM376.541 53.8528C370.37 60.1113 367.284 68.2821 367.284 78.3652C367.284 88.4483 370.37 96.6191 376.541 102.878C382.713 109.136 390.71 112.265 400.532 112.265C410.268 112.265 418.221 109.136 424.393 102.878C430.651 96.6191 433.781 88.4483 433.781 78.3652C433.781 68.2821 430.651 60.1113 424.393 53.8528C418.221 47.5943 410.268 44.465 400.532 44.465C390.71 44.465 382.713 47.5943 376.541 53.8528ZM463.779 124V32.7304H522.453V47.0727H478.774V124H463.779Z" fill="white"/>
</svg>
